<svg width="583" height="402" viewBox="0 0 583 402" fill="none" xmlns="http://www.w3.org/2000/svg">
<rect width="580" height="400" fill="white" transform="translate(2)"/>
<g opacity="0.8" transform="translate(276 68)">
<path d="M54.914 230.323C54.914 228.379 56.4897 226.804 58.4333 226.804H59.5975C60.8982 226.804 61.9526 227.858 61.9526 229.159C61.9526 230.46 60.8982 231.514 59.5975 231.514H54.914V230.323Z" fill="#EEF1F3"/>
<path d="M94.1053 277.047V265.346C94.1053 263.137 92.3144 261.346 90.1053 261.346H86.2632H78.421H70.579H39.2105H31.3685H23.5263H19.6843C17.4751 261.346 15.6843 263.137 15.6843 265.346V277.047H94.1053Z" fill="#EEF1F3"/>
<path d="M109.789 332V277.047H94.1053H15.6843H4C1.79086 277.047 0 278.838 0 281.047V328C0 330.209 1.79086 332 4 332H109.789Z" fill="#EEF1F3"/>
<path d="M241.263 332V51.8878C241.263 49.6787 239.472 47.8878 237.263 47.8878H215.737H200.053H174.526V102.148V332H241.263Z" fill="#EEF1F3"/>
<path d="M174.526 332V102.148L109.789 77.1912V277.047V332H174.526Z" fill="#EEF1F3"/>
<path d="M54.914 240.15C46.2519 240.15 39.2105 247.179 39.2105 255.85V261.346H70.579V255.85C70.579 247.179 63.5762 240.15 54.914 240.15Z" fill="#EEF1F3"/>
<path d="M306 332V116.26C306 113.339 302.969 111.403 300.318 112.631L243.581 138.921C242.168 139.576 241.263 140.992 241.263 142.55V332H306Z" fill="#EEF1F3"/>
<path d="M174.526 47.8878H200.053M174.526 47.8878V332M174.526 47.8878V102.148M241.263 332V51.8878C241.263 49.6787 239.472 47.8878 237.263 47.8878H215.737M241.263 332H174.526M241.263 332H306V116.26C306 113.339 302.969 111.403 300.318 112.631L243.581 138.921C242.168 139.576 241.263 140.992 241.263 142.55V332ZM174.526 332V102.148M174.526 332H109.789M200.053 47.8878V0M200.053 47.8878H215.737M215.737 47.8878V16.407M174.526 102.148L109.789 77.1912M109.789 77.1912V332M109.789 77.1912V277.047M109.789 332V277.047M109.789 332H4C1.79086 332 0 330.209 0 328V281.047C0 278.838 1.79086 277.047 4 277.047H15.6843M109.789 277.047H94.1053M54.914 240.15C46.2519 240.15 39.2105 247.179 39.2105 255.85V261.346M54.914 240.15C63.5762 240.15 70.579 247.179 70.579 255.85V261.346M54.914 240.15V231.514M54.914 231.514V230.323C54.914 228.379 56.4897 226.804 58.4333 226.804H59.5975C60.8982 226.804 61.9526 227.858 61.9526 229.159V229.159C61.9526 230.46 60.8982 231.514 59.5975 231.514H54.914ZM94.1053 277.047V265.346C94.1053 263.137 92.3144 261.346 90.1053 261.346H86.2632H78.421H70.579M94.1053 277.047H15.6843M15.6843 277.047V265.346C15.6843 263.137 17.4751 261.346 19.6843 261.346H23.5263H31.3685H39.2105M39.2105 261.346H70.579" stroke="#EEF1F3" stroke-width="2" stroke-linecap="round" stroke-linejoin="round"/>
</g>
<path d="M26 20.88C26 23.7202 23.7313 26 20.9605 26C19.8106 26 18.752 25.6098 17.9029 24.9503C17.699 24.7918 17.3011 24.4121 16.722 23.8115C16.1586 23.2273 15.4637 22.4764 14.682 21.6129C13.1193 19.8869 11.2262 17.7297 9.37588 15.5958C5.67606 11.329 2.16103 7.17169 1.82971 6.77947C1.31288 6.16766 1 5.37301 1 4.5C1 2.55448 2.55294 1 4.44079 1C5.29151 1 6.06941 1.31286 6.67183 1.83541C7.44965 2.51011 22.9119 15.849 24.216 16.9716C25.3069 17.9106 26 19.3111 26 20.88Z" transform="translate(425 200.643) rotate(-12.0633)" fill="white" stroke="#007699" stroke-width="2"/>
<path d="M26 20.88C26 23.7202 23.7313 26 20.9605 26C19.8106 26 18.752 25.6098 17.9029 24.9503C17.699 24.7918 17.3011 24.4121 16.722 23.8115C16.1586 23.2273 15.4637 22.4764 14.682 21.6129C13.1193 19.8869 11.2262 17.7297 9.37588 15.5958C5.67606 11.329 2.16103 7.17169 1.82971 6.77947C1.31288 6.16766 1 5.37301 1 4.5C1 2.55448 2.55294 1 4.44079 1C5.29151 1 6.06941 1.31286 6.67183 1.83541C7.44965 2.51011 22.9119 15.849 24.216 16.9716C25.3069 17.9106 26 19.3111 26 20.88Z" transform="translate(411.225 211) rotate(22.2538)" fill="white" stroke="#007699" stroke-width="2"/>
<path d="M0 5C0 2.23858 2.23858 0 5 0C5.16875 0 5.33555 0.00835972 5.5 0.0246876L29.3415 2.01148C29.3946 2.01506 29.4474 2.01946 29.5 2.02469C32.0267 2.27555 34 4.40733 34 7C34 9.76142 31.7614 12 29 12C28.8313 12 28.6645 11.9916 28.5 11.9753L4.65852 9.98852C4.60545 9.98494 4.5526 9.98053 4.5 9.97531C1.97334 9.72445 0 7.59267 0 5Z" transform="translate(419 234)" fill="white"/>
<path d="M5 10C4.83125 10 4.66445 9.99164 4.5 9.97531M29 2C29.1687 2 29.3355 2.00836 29.5 2.02469M29.5 2.02469C32.0267 2.27555 34 4.40733 34 7C34 9.76142 31.7614 12 29 12C28.8313 12 28.6645 11.9916 28.5 11.9753L4.5 9.97531M29.5 2.02469L5.5 0.0246876C5.33555 0.00835972 5.16875 0 5 0C2.23858 0 0 2.23858 0 5C0 7.59267 1.97334 9.72445 4.5 9.97531" transform="translate(419 234)" stroke="#007699" stroke-width="2"/>
<path d="M7 0C4.23858 0 2 2.23858 2 5L0 29C0 31.7614 2.23858 34 5 34C7.76142 34 10 31.7614 10 29L12 5C12 2.23858 9.76142 0 7 0Z" transform="translate(443 212)" fill="white" stroke="#007699" stroke-width="2"/>
<path d="M66.5315 7.19429L66.5512 7.17125C70.1933 3.367 75.3194 1 81 1C92.0457 1 101 9.95431 101 21C101 23.3474 100.03 26.1845 98.9018 28.707C98.3454 29.9514 97.765 31.0886 97.2758 32.0129C97.0922 32.3596 96.9157 32.6868 96.7572 32.9805C96.5075 33.4435 96.3026 33.8233 96.1858 34.0653C95.8364 34.789 86.2047 53.0631 75.9558 72.0064C70.8352 81.4708 65.5677 91.089 61.2378 98.7493C59.0725 102.58 57.1446 105.916 55.5884 108.496C54.0161 111.102 52.8625 112.87 52.2337 113.62C46.9124 119.967 38.9276 124 30 124C13.9837 124 1 111.016 1 95C1 86.9568 4.81818 80.7275 9.79602 74.181C12.2741 70.922 26.4481 54.1856 40.0412 38.2202C46.8293 30.2474 53.4613 22.4799 58.3963 16.7056C60.8638 13.8184 62.907 11.4296 64.3334 9.76258C65.0465 8.92907 65.6055 8.27601 65.9861 7.83134L66.4203 7.32413L66.5315 7.19429Z" transform="translate(417 270.001)" fill="#BDD8E4" stroke="#007699" stroke-width="2"/>
<path d="M75 58C75 66.8366 67.8366 74 59 74C55.3404 74 51.9703 72.7726 49.275 70.7064C47.8481 69.6126 44.4234 66.0703 39.9774 61.2243C35.5657 56.4157 30.2273 50.4123 25.0159 44.4813C14.594 32.6205 4.69393 21.0655 3.75968 19.9741C2.03857 17.9635 1 15.3543 1 12.5C1 6.14873 6.14873 1 12.5 1C15.3543 1 17.9635 2.03857 19.9741 3.75968C22.1607 5.63138 65.6818 42.6819 69.3526 45.8002C72.8093 48.7366 75 53.1119 75 58Z" transform="translate(438 232.001)" fill="#BDD8E4" stroke="#007699" stroke-width="2"/>
<path d="M34 17C34 26.3888 26.3888 34 17 34C7.61116 34 0 26.3888 0 17C0 7.61116 7.61116 0 17 0C26.3888 0 34 7.61116 34 17Z" transform="translate(429 349.001)" fill="white" stroke="#007699" stroke-width="2"/>
<path d="M19 9.5C19 14.7467 14.7467 19 9.5 19C4.25329 19 0 14.7467 0 9.5C0 4.25329 4.25329 0 9.5 0C14.7467 0 19 4.25329 19 9.5Z" transform="translate(487 280.001)" fill="white" stroke="#007699" stroke-width="2"/>
<path d="M1 5C1 2.79086 2.79086 1 5 1H86C88.2091 1 90 2.79086 90 5V18H1V5Z" transform="translate(401 382.001)" fill="#F1F4F5" stroke="#007699" stroke-width="2"/>
<path d="M10 5C10 7.76142 7.76142 10 5 10C2.23858 10 0 7.76142 0 5C0 2.23858 2.23858 0 5 0C7.76142 0 10 2.23858 10 5Z" transform="translate(444 238.001)" fill="white" stroke="#007699" stroke-width="2"/>
<g opacity="0.8" transform="translate(1 295)">
<path d="M6.60698 44.5793H13.214V40.1764L6.60698 42.3779V44.5793Z" fill="#EEF1F3"/>
<path d="M13.214 44.5793H19.821V37.975L13.214 40.1764V44.5793Z" fill="#EEF1F3"/>
<path d="M19.821 44.5793H26.4279V37.975H19.821V44.5793Z" fill="#EEF1F3"/>
<path d="M26.4279 44.5793H33.0349V37.975H26.4279V44.5793Z" fill="#EEF1F3"/>
<path d="M33.0349 37.975V44.5793H39.6419V37.975H33.0349Z" fill="#EEF1F3"/>
<path d="M46.2489 44.5793V37.975H39.6419V44.5793H46.2489Z" fill="#EEF1F3"/>
<path d="M46.2489 37.975V44.5793H52.8559V37.975H46.2489Z" fill="#EEF1F3"/>
<path d="M59.4629 44.5793V37.975H52.8559V44.5793H59.4629Z" fill="#EEF1F3"/>
<path d="M59.4629 37.975V44.5793H66.0699V37.975H59.4629Z" fill="#EEF1F3"/>
<path d="M72.6769 44.5793V37.975H66.0699V44.5793H72.6769Z" fill="#EEF1F3"/>
<path d="M72.6769 37.975V44.5793H79.2839V37.975H72.6769Z" fill="#EEF1F3"/>
<path d="M85.8909 44.5793V37.975H79.2839V44.5793H85.8909Z" fill="#EEF1F3"/>
<path d="M92.4978 44.5793V37.975H85.8909V44.5793H92.4978Z" fill="#EEF1F3"/>
<path d="M99.1048 44.5793V37.975H92.4978V44.5793H99.1048Z" fill="#EEF1F3"/>
<path d="M99.1048 44.5793H105.712V40.1764L99.1048 37.975V44.5793Z" fill="#EEF1F3"/>
<path d="M105.712 44.5793H112.319V42.3779L105.712 40.1764V44.5793Z" fill="#EEF1F3"/>
<path d="M132.14 67.6946V57.788H125.533V67.6946H132.14Z" fill="#EEF1F3"/>
<path d="M138.747 67.6946V57.788H132.14V67.6946H138.747Z" fill="#EEF1F3"/>
<path d="M145.354 67.6946V57.788H138.747V67.6946H145.354Z" fill="#EEF1F3"/>
<path d="M151.961 67.6946V57.788H145.354V67.6946H151.961Z" fill="#EEF1F3"/>
<path d="M158.568 67.6946V57.788H151.961V67.6946H158.568Z" fill="#EEF1F3"/>
<path d="M165.175 67.6946V57.788H158.568V67.6946H165.175Z" fill="#EEF1F3"/>
<path d="M171.782 67.6946V57.788H165.175V67.6946H171.782Z" fill="#EEF1F3"/>
<path d="M178.389 67.6946V57.788H171.782V67.6946H178.389Z" fill="#EEF1F3"/>
<path d="M184.996 67.6946V57.788H178.389V67.6946H184.996Z" fill="#EEF1F3"/>
<path d="M191.603 67.6946V57.788H184.996V67.6946H191.603Z" fill="#EEF1F3"/>
<path d="M198.21 67.6946V57.788H191.603V67.6946H198.21Z" fill="#EEF1F3"/>
<path d="M125.533 67.6946H118.926C118.926 69.5183 120.405 70.9967 122.229 70.9967C124.054 70.9967 125.533 69.5183 125.533 67.6946Z" fill="#EEF1F3"/>
<path d="M132.14 67.6946H125.533C125.533 69.5183 127.012 70.9967 128.836 70.9967C130.661 70.9967 132.14 69.5183 132.14 67.6946Z" fill="#EEF1F3"/>
<path d="M138.747 67.6946H132.14C132.14 69.5183 133.619 70.9967 135.443 70.9967C137.268 70.9967 138.747 69.5183 138.747 67.6946Z" fill="#EEF1F3"/>
<path d="M145.354 67.6946H138.747C138.747 69.5183 140.226 70.9967 142.05 70.9967C143.875 70.9967 145.354 69.5183 145.354 67.6946Z" fill="#EEF1F3"/>
<path d="M151.961 67.6946H145.354C145.354 69.5183 146.833 70.9967 148.657 70.9967C150.482 70.9967 151.961 69.5183 151.961 67.6946Z" fill="#EEF1F3"/>
<path d="M158.568 67.6946H151.961C151.961 69.5183 153.44 70.9967 155.264 70.9967C157.089 70.9967 158.568 69.5183 158.568 67.6946Z" fill="#EEF1F3"/>
<path d="M165.175 67.6946H158.568C158.568 69.5183 160.047 70.9967 161.871 70.9967C163.696 70.9967 165.175 69.5183 165.175 67.6946Z" fill="#EEF1F3"/>
<path d="M171.782 67.6946H165.175C165.175 69.5183 166.654 70.9967 168.478 70.9967C170.303 70.9967 171.782 69.5183 171.782 67.6946Z" fill="#EEF1F3"/>
<path d="M178.389 67.6946H171.782C171.782 69.5183 173.261 70.9967 175.085 70.9967C176.91 70.9967 178.389 69.5183 178.389 67.6946Z" fill="#EEF1F3"/>
<path d="M184.996 67.6946H178.389C178.389 69.5183 179.868 70.9967 181.692 70.9967C183.517 70.9967 184.996 69.5183 184.996 67.6946Z" fill="#EEF1F3"/>
<path d="M191.603 67.6946H184.996C184.996 69.5183 186.475 70.9967 188.299 70.9967C190.124 70.9967 191.603 69.5183 191.603 67.6946Z" fill="#EEF1F3"/>
<path d="M198.21 67.6946H191.603C191.603 69.5183 193.082 70.9967 194.906 70.9967C196.731 70.9967 198.21 69.5183 198.21 67.6946Z" fill="#EEF1F3"/>
<path d="M204.817 67.6946H198.21C198.21 69.5183 199.689 70.9967 201.513 70.9967C203.338 70.9967 204.817 69.5183 204.817 67.6946Z" fill="#EEF1F3"/>
<path d="M118.926 67.6946H125.533V57.788H118.926V67.6946Z" fill="#EEF1F3"/>
<path d="M198.21 57.788V67.6946H204.817L198.21 57.788Z" fill="#EEF1F3"/>
<path d="M118.926 67.6946V104.018H194.21C196.419 104.018 198.21 102.228 198.21 100.018V67.6946C198.21 69.5183 196.731 70.9967 194.906 70.9967C193.082 70.9967 191.603 69.5183 191.603 67.6946C191.603 69.5183 190.124 70.9967 188.299 70.9967C186.475 70.9967 184.996 69.5183 184.996 67.6946C184.996 69.5183 183.517 70.9967 181.692 70.9967C179.868 70.9967 178.389 69.5183 178.389 67.6946C178.389 69.5183 176.91 70.9967 175.085 70.9967C173.261 70.9967 171.782 69.5183 171.782 67.6946C171.782 69.5183 170.303 70.9967 168.478 70.9967C166.654 70.9967 165.175 69.5183 165.175 67.6946C165.175 69.5183 163.696 70.9967 161.871 70.9967C160.047 70.9967 158.568 69.5183 158.568 67.6946C158.568 69.5183 157.089 70.9967 155.264 70.9967C153.44 70.9967 151.961 69.5183 151.961 67.6946C151.961 69.5183 150.482 70.9967 148.657 70.9967C146.833 70.9967 145.354 69.5183 145.354 67.6946C145.354 69.5183 143.875 70.9967 142.05 70.9967C140.226 70.9967 138.747 69.5183 138.747 67.6946C138.747 69.5183 137.268 70.9967 135.443 70.9967C133.619 70.9967 132.14 69.5183 132.14 67.6946C132.14 69.5183 130.661 70.9967 128.836 70.9967C127.012 70.9967 125.533 69.5183 125.533 67.6946C125.533 69.5183 124.054 70.9967 122.229 70.9967C120.405 70.9967 118.926 69.5183 118.926 67.6946Z" fill="#EEF1F3"/>
<path d="M26.4279 37.975H33.0349V31.3706V24.7663V22.1619C33.0349 19.9528 31.2441 18.1619 29.0349 18.1619H26.4279H23.821C21.6118 18.1619 19.821 19.9528 19.821 22.1619V37.975H26.4279Z" fill="#EEF1F3"/>
<path d="M52.8559 37.975H59.4629H66.0699V31.3706V24.7663V22.1619C66.0699 19.9528 64.279 18.1619 62.0699 18.1619H59.4629H56.8559C54.6468 18.1619 52.8559 19.9528 52.8559 22.1619V37.975Z" fill="#EEF1F3"/>
<path d="M92.4978 37.975H99.1048V31.3706V24.7663V22.1619C99.1048 19.9528 97.314 18.1619 95.1048 18.1619H92.4978H89.8909C87.6817 18.1619 85.8909 19.9528 85.8909 22.1619V37.975H92.4978Z" fill="#EEF1F3"/>
<path d="M13.214 44.5793H6.60698L0 44.9096V104.247L118.926 104.018V67.6946V57.788V44.5793H112.319H105.712H99.1048H92.4978H85.8909H79.2839H72.6769H66.0699H59.4629H52.8559H46.2489H39.6419H33.0349H26.4279H19.821H13.214Z" fill="#EEF1F3"/>
<path d="M118.926 104.018V67.6946M118.926 104.018H194.21C196.419 104.018 198.21 102.228 198.21 100.018V67.6946M118.926 104.018L0 104.247M0 44.9096L6.60698 44.5793M0 44.9096L6.60698 42.3779M0 44.9096V104.247M118.926 44.5793H112.319M118.926 44.5793L112.319 42.3779M118.926 44.5793V57.788M13.214 44.5793H6.60698M13.214 44.5793H19.821M13.214 44.5793V40.1764M6.60698 44.5793V42.3779M105.712 44.5793H112.319M105.712 44.5793H99.1048M105.712 44.5793V40.1764M59.4629 37.975V44.5793M59.4629 37.975H52.8559M59.4629 37.975H66.0699M59.4629 44.5793H52.8559M59.4629 44.5793H66.0699M46.2489 44.5793V37.975M46.2489 44.5793H39.6419M46.2489 44.5793H52.8559M46.2489 37.975H39.6419M46.2489 37.975H52.8559M33.0349 44.5793H26.4279M33.0349 44.5793V37.975M33.0349 44.5793H39.6419M33.0349 37.975H26.4279M33.0349 37.975H39.6419M33.0349 37.975V31.3706M19.821 44.5793H26.4279M19.821 44.5793V37.975M19.821 37.975H26.4279M19.821 37.975V22.1619C19.821 19.9528 21.6118 18.1619 23.821 18.1619H26.4279H29.0349C31.2441 18.1619 33.0349 19.9528 33.0349 22.1619V24.7663M19.821 37.975L13.214 40.1764M26.4279 44.5793V37.975M39.6419 44.5793V37.975M52.8559 44.5793V37.975M52.8559 37.975V22.1619C52.8559 19.9528 54.6468 18.1619 56.8559 18.1619H59.4629H62.0699C64.279 18.1619 66.0699 19.9528 66.0699 22.1619V24.7663M112.319 44.5793V42.3779M99.1048 44.5793V37.975M99.1048 44.5793H92.4978M99.1048 37.975H92.4978M99.1048 37.975L105.712 40.1764M99.1048 37.975V31.3706M92.4978 44.5793V37.975M92.4978 44.5793H85.8909M92.4978 37.975H85.8909M85.8909 44.5793V37.975M85.8909 44.5793H79.2839M85.8909 37.975H79.2839M85.8909 37.975V22.1619C85.8909 19.9528 87.6817 18.1619 89.8909 18.1619H92.4978H95.1048C97.314 18.1619 99.1048 19.9528 99.1048 22.1619V24.7663M72.6769 37.975V44.5793M72.6769 37.975H79.2839M72.6769 37.975H66.0699M72.6769 44.5793H79.2839M72.6769 44.5793H66.0699M79.2839 44.5793V37.975M66.0699 44.5793V37.975M66.0699 37.975V31.3706M105.712 40.1764L112.319 42.3779M13.214 40.1764L6.60698 42.3779M99.1048 24.7663H92.4978M99.1048 24.7663V31.3706M99.1048 31.3706H92.4978M66.0699 24.7663H59.4629M66.0699 24.7663V31.3706M66.0699 31.3706H59.4629M33.0349 24.7663H26.4279M33.0349 24.7663V31.3706M33.0349 31.3706H26.4279M118.926 67.6946H125.533M118.926 67.6946C118.926 69.5183 120.405 70.9967 122.229 70.9967C124.054 70.9967 125.533 69.5183 125.533 67.6946M118.926 67.6946V57.788M132.14 67.6946V57.788M132.14 67.6946H125.533M132.14 67.6946H158.568M132.14 67.6946H138.747M132.14 67.6946C132.14 69.5183 130.661 70.9967 128.836 70.9967C127.012 70.9967 125.533 69.5183 125.533 67.6946M132.14 67.6946C132.14 69.5183 133.619 70.9967 135.443 70.9967C137.268 70.9967 138.747 69.5183 138.747 67.6946M132.14 57.788H125.533M132.14 57.788H158.568M132.14 57.788H138.747M125.533 57.788V67.6946M125.533 57.788H118.926M158.568 67.6946V57.788M158.568 67.6946H151.961M158.568 67.6946H165.175M158.568 67.6946C158.568 69.5183 157.089 70.9967 155.264 70.9967C153.44 70.9967 151.961 69.5183 151.961 67.6946M158.568 67.6946C158.568 69.5183 160.047 70.9967 161.871 70.9967C163.696 70.9967 165.175 69.5183 165.175 67.6946M158.568 57.788H151.961M158.568 57.788H165.175M138.747 67.6946V57.788M138.747 67.6946H145.354M138.747 67.6946C138.747 69.5183 140.226 70.9967 142.05 70.9967C143.875 70.9967 145.354 69.5183 145.354 67.6946M138.747 57.788H145.354M145.354 67.6946V57.788M145.354 67.6946H151.961M145.354 67.6946C145.354 69.5183 146.833 70.9967 148.657 70.9967C150.482 70.9967 151.961 69.5183 151.961 67.6946M145.354 57.788H151.961M151.961 67.6946V57.788M165.175 67.6946V57.788M165.175 67.6946H171.782M165.175 67.6946C165.175 69.5183 166.654 70.9967 168.478 70.9967C170.303 70.9967 171.782 69.5183 171.782 67.6946M165.175 57.788H171.782M171.782 67.6946V57.788M171.782 67.6946H178.389M171.782 67.6946C171.782 69.5183 173.261 70.9967 175.085 70.9967C176.91 70.9967 178.389 69.5183 178.389 67.6946M171.782 57.788H178.389M178.389 67.6946V57.788M178.389 67.6946H184.996M178.389 67.6946C178.389 69.5183 179.868 70.9967 181.692 70.9967C183.517 70.9967 184.996 69.5183 184.996 67.6946M178.389 57.788H184.996M184.996 67.6946V57.788M184.996 67.6946H191.603M184.996 67.6946C184.996 69.5183 186.475 70.9967 188.299 70.9967C190.124 70.9967 191.603 69.5183 191.603 67.6946M184.996 57.788H191.603M191.603 67.6946V57.788M191.603 67.6946H198.21M191.603 67.6946C191.603 69.5183 193.082 70.9967 194.906 70.9967C196.731 70.9967 198.21 69.5183 198.21 67.6946M191.603 57.788H198.21M198.21 67.6946V57.788M198.21 67.6946H204.817M198.21 67.6946C198.21 69.5183 199.689 70.9967 201.513 70.9967C203.338 70.9967 204.817 69.5183 204.817 67.6946M198.21 57.788L204.817 67.6946M31.374 0C28.288 3.69871 26.4278 6.46347 26.4278 11.5576M64.4089 0C61.323 3.69871 59.4627 6.46347 59.4627 11.5576M97.4531 0C94.3672 3.69871 92.5069 6.46347 92.5069 11.5576M0 104.349V104.247" stroke="#EEF1F3" stroke-width="2" stroke-linecap="round" stroke-linejoin="round"/>
</g>
<path d="M15.6393 0C9.77972 0 4.65418 3.13851 1.85613 7.8241C0.540135 10.0279 2.444 12.4567 5.01078 12.4567H15.6393H26.2678C28.8345 12.4567 30.7384 10.0279 29.4224 7.8241C26.6244 3.13851 21.4988 0 15.6393 0Z" transform="translate(47 386.07)" fill="#BDD8E4"/>
<path d="M15.6393 12.4567H5.01078C2.444 12.4567 0.540135 10.0279 1.85613 7.8241C4.65418 3.13851 9.77972 0 15.6393 0C21.4988 0 26.6244 3.13851 29.4224 7.8241C30.7384 10.0279 28.8345 12.4567 26.2678 12.4567H15.6393ZM15.6393 12.4567L20.9848 7.11812M15.6393 12.4567L10.2937 7.11812" transform="translate(47 386.07)" stroke="#007699" stroke-width="2" stroke-linecap="round" stroke-linejoin="round"/>
<path d="M8.84536 4.61429C10.2726 2.29477 13.4854 2.29477 14.9127 4.61429C21.0603 14.6055 32.7192 37.5132 11.879 39.5945C-8.96122 37.5132 2.69772 14.6055 8.84536 4.61429Z" transform="translate(13 339)" fill="#BDD8E4"/>
<path d="M11.879 60.0591V39.5945M11.879 39.5945C32.7192 37.5132 21.0603 14.6055 14.9127 4.61429C13.4854 2.29477 10.2726 2.29477 8.84536 4.61429C2.69772 14.6055 -8.96122 37.5132 11.879 39.5945ZM11.879 39.5945V33.3662M11.879 18.2402V27.1378M11.879 27.1378L16.3336 22.689M11.879 27.1378V33.3662M11.879 33.3662L7.42438 28.9174" transform="translate(13 339)" stroke="#007699" stroke-width="2" stroke-linecap="round" stroke-linejoin="round"/>
<path d="M42 49L45 52.5043H42H3H0L3 49V37.5H42V49Z" transform="translate(505.5 342)" fill="#BDD8E4"/>
<path d="M53 58.5L59 58.5829V53.4585H53V58.5Z" transform="translate(505.5 342)" fill="#BDD8E4"/>
<path d="M59 49.5C59 49.5 58.7285 47.5 56 47.5C53.2715 47.5 53 49.4171 53 49.4171V53.4585H59V49.5Z" transform="translate(505.5 342)" fill="#BDD8E4"/>
<path d="M55.9977 0V1.5M55.9977 3.5H51.9049M55.9977 3.5H60.0905M55.9977 3.5V1.5M51.9049 3.5L53 11.5H55.9977M51.9049 3.5L52.3596 1.5H55.9977M51.9049 3.5H50.5H60.0905M60.0905 3.5L59 11.5H55.9977M60.0905 3.5L59.6357 1.5H55.9977M60.0905 3.5H61.5M55.9977 11.5L56 47.5M56 47.5C58.7285 47.5 59 49.5 59 49.5V53.4585M56 47.5C53.2715 47.5 53 49.4171 53 49.4171V53.4585M42 49L45 52.5043H42M42 49H3M42 49V37.5H3V49M3 49L0 52.5043H3M3 52.5043V58.4999M3 52.5043H42M42 52.5043V58.4999M53 53.4585V58.5L59 58.5829V53.4585M53 53.4585H59" transform="translate(505.5 342)" stroke="#007699" stroke-width="2" stroke-linecap="round" stroke-linejoin="round"/>
<circle cx="71" cy="71" r="71" transform="translate(229.735 236)" fill="#BDD8E4" stroke="#007699" stroke-width="2"/>
<path d="M0 14H1M0 7H1M0 0H1" transform="translate(292.735 254)" stroke="#007699" stroke-width="2" stroke-linecap="round" stroke-linejoin="round"/>
<path d="M0 20.5H1M0 14H1M0 7H1M0 0H1" transform="translate(341.735 315) rotate(-90)" stroke="#007699" stroke-width="2" stroke-linecap="round" stroke-linejoin="round"/>
<circle cx="33" cy="33" r="33" transform="translate(267.735 274)" fill="white" stroke="#007699" stroke-width="2"/>
<path fill-rule="evenodd" clip-rule="evenodd" d="M0 38V0C39.2122 0 71 31.7878 71 71H33C33 52.7747 18.2254 38 0 38Z" transform="translate(300.735 236)" fill="#F1F4F5" stroke="#007699" stroke-width="2"/>
<path d="M1 5C1 2.79086 2.79086 1 5 1H155C157.209 1 159 2.79086 159 5V11H1V5Z" transform="translate(222 389.003)" fill="#F1F4F5" stroke="#007699" stroke-width="2"/>
<path d="M1 5C1 2.79086 2.79086 1 5 1H117C119.209 1 121 2.79086 121 5V12H1V5Z" transform="translate(239 378)" fill="#F1F4F5" stroke="#007699" stroke-width="2"/>
<path d="M7.89714 54.613C7.89714 52.4323 6.1293 50.6629 3.94857 50.6629C1.76783 50.6629 0 52.4323 0 54.613C0 56.7938 1.76784 58.5631 3.94857 58.5631C6.1293 58.5631 7.89714 56.7938 7.89714 54.613Z" transform="translate(354.083 113) scale(-1 1)" fill="#BDD8E4"/>
<path d="M3.94857 0V50.6629M3.94857 58.5631V58.5631C1.76784 58.5631 0 56.7938 0 54.613V54.613C0 52.4323 1.76783 50.6629 3.94857 50.6629V50.6629C6.1293 50.6629 7.89714 52.4323 7.89714 54.613V54.613C7.89714 56.7938 6.1293 58.5631 3.94857 58.5631V58.5631ZM3.94857 58.5631V58.5631C3.94857 60.7446 1.74125 62.3904 0.589395 64.243C0.214456 64.8461 0 65.5934 0 66.4632C0 68.6851 1.80462 70.4133 3.94857 70.4133C6.16964 70.4133 7.89714 68.6851 7.89714 66.4632" transform="translate(354.083 113) scale(-1 1)" stroke="#007699" stroke-width="2" stroke-linecap="round" stroke-linejoin="round"/>
<path d="M0 26C27.2992 26 50.9999 41.407 62.8812 64C68.066 73.8593 71 85.087 71 97H33C33 78.7747 18.2253 64 0 64V26Z" transform="translate(319 183.468)" fill="#BDD8E4"/>
<path d="M0 26V64C18.2253 64 33 78.7747 33 97H71C71 85.087 68.066 73.8593 62.8812 64M0 26L31.5 0M0 26C27.2992 26 50.9999 41.407 62.8812 64M31.5 0V32.5M31.5 0L62.8812 64" transform="translate(319 183.468)" stroke="#007699" stroke-width="2" stroke-linejoin="round"/>
<path d="M0 20.5H1M0 14H1M0 7H1M0 0H1" transform="translate(326 219.468)" stroke="#007699" stroke-width="2" stroke-linecap="round" stroke-linejoin="round"/>
<path d="M0 20.5H1M0 14H1M0 7H1M0 0H1" transform="translate(360 273.468) rotate(-90)" stroke="#007699" stroke-width="2" stroke-linecap="round" stroke-linejoin="round"/>
<circle cx="8.6341" cy="8.6341" r="8.6341" transform="translate(325.743 90.4052) rotate(-52.9726)" fill="#007699"/>
<path d="M0 3L6.80024 10.4999M9.00024 8.63325L4 0" transform="translate(324.817 74.6946) rotate(-10.2341)" stroke="#007699" stroke-width="2" stroke-linecap="round" stroke-linejoin="round"/>
<ellipse cx="12.9512" cy="19.4267" rx="12.9512" ry="19.4267" transform="translate(333.482 101.651) rotate(-52.9726)" fill="#007699"/>
<path d="M0 1C0 0.447715 0.447715 0 1 0H7.6341C8.18639 0 8.6341 0.447715 8.6341 1V2.15853L5.27858 13.9029C5.00228 14.8699 3.63182 14.8699 3.35553 13.9029L0 2.15853V1Z" transform="translate(366.254 115.556) rotate(-52.9726)" fill="#007699"/>
<rect width="12.9512" height="4.31705" rx="2.15853" transform="translate(361.508 114.679) rotate(-52.9726)" fill="#BDD8E4"/>
<rect width="17.2682" height="4.31705" rx="2.15853" transform="translate(353.315 111.203) rotate(-52.9726)" fill="#BDD8E4"/>
<rect width="17.2682" height="4.31705" rx="2.15853" transform="translate(346.422 106.004) rotate(-52.9726)" fill="#BDD8E4"/>
<ellipse cx="12.9512" cy="7.55484" rx="12.9512" ry="7.55484" transform="translate(360.032 67.8287) scale(-1 1) rotate(59.5834)" fill="white" stroke="#007699" stroke-width="2"/>
<ellipse cx="12.9512" cy="7.55484" rx="12.9512" ry="7.55484" transform="translate(349.034 84.6177) rotate(-11.4727)" fill="white" stroke="#007699" stroke-width="2"/>
<path d="M66.5315 7.19429L66.5512 7.17125C70.1933 3.367 75.3194 1 81 1C92.0457 1 101 9.95431 101 21C101 23.3474 100.03 26.1845 98.9018 28.707C98.3454 29.9514 97.765 31.0886 97.2758 32.0129C97.0922 32.3596 96.9157 32.6868 96.7572 32.9805C96.5075 33.4435 96.3026 33.8233 96.1858 34.0653C95.8364 34.789 86.2047 53.0631 75.9558 72.0064C70.8352 81.4708 65.5677 91.089 61.2378 98.7493C59.0725 102.58 57.1446 105.916 55.5884 108.496C54.0161 111.102 52.8625 112.87 52.2337 113.62C46.9124 119.967 38.9276 124 30 124C13.9837 124 1 111.016 1 95C1 86.9568 4.81818 80.7275 9.79602 74.181C12.2741 70.922 26.4481 54.1856 40.0412 38.2202C46.8293 30.2474 53.4613 22.4799 58.3963 16.7056C60.8638 13.8184 62.907 11.4296 64.3334 9.76258C65.0465 8.92907 65.6055 8.27601 65.9861 7.83134L66.4203 7.32413L66.5315 7.19429Z" transform="translate(209.033 277.412) scale(-1 1) rotate(-88.1089)" fill="#BDD8E4" stroke="#007699" stroke-width="2"/>
<path d="M75 58C75 66.8366 67.8366 74 59 74C55.3404 74 51.9703 72.7726 49.275 70.7064C47.8481 69.6126 44.4234 66.0703 39.9774 61.2243C35.5657 56.4157 30.2273 50.4123 25.0159 44.4813C14.594 32.6205 4.69393 21.0655 3.75968 19.9741C2.03857 17.9635 1 15.3543 1 12.5C1 6.14873 6.14873 1 12.5 1C15.3543 1 17.9635 2.03857 19.9741 3.75968C22.1607 5.63138 65.6818 42.6819 69.3526 45.8002C72.8093 48.7366 75 53.1119 75 58Z" transform="translate(263.122 222.93) scale(-1 1) rotate(-66.0614)" fill="#BDD8E4" stroke="#007699" stroke-width="2"/>
<path d="M34 17C34 26.3888 26.3888 34 17 34C7.61116 34 0 26.3888 0 17C0 7.61116 7.61116 0 17 0C26.3888 0 34 7.61116 34 17Z" transform="translate(128.735 232.468) scale(-1 1)" fill="white" stroke="#007699" stroke-width="2"/>
<path d="M19 9.5C19 14.7467 14.7467 19 9.5 19C4.25329 19 0 14.7467 0 9.5C0 4.25329 4.25329 0 9.5 0C14.7467 0 19 4.25329 19 9.5Z" transform="translate(197.677 187.431) scale(-1 1) rotate(-20.691)" fill="white" stroke="#007699" stroke-width="2"/>
<path d="M46 23.1575C46 35.9471 30.9796 49.1507 23 69C15.0204 48.2055 0 35.9471 0 23.1575C0 10.368 10.2975 0 23 0C35.7025 0 46 10.368 46 23.1575Z" transform="translate(87.7356 304.468)" fill="white" stroke="#007699" stroke-width="2" stroke-linecap="round" stroke-linejoin="round"/>
<path d="M27.2245 14.2752C27.2245 22.1592 18.3349 30.2984 13.6122 42.5342C8.88963 29.7157 0 22.1592 0 14.2752C0 6.39122 6.09441 0 13.6122 0C21.1301 0 27.2245 6.39122 27.2245 14.2752Z" transform="translate(97.1233 312.974)" fill="#BDD8E4"/>
<path d="M32 16.1096C32 25.0067 21.551 34.1918 16 48C10.449 33.5342 0 25.0067 0 16.1096C0 7.21251 7.16344 0 16 0C24.8366 0 32 7.21251 32 16.1096Z" transform="translate(62.5142 298.692) rotate(20.1236)" fill="white" stroke="#007699" stroke-width="2" stroke-linecap="round" stroke-linejoin="round"/>
<path d="M18.9388 9.93057C18.9388 15.4151 12.7547 21.0771 9.46939 29.589C6.18409 20.6718 0 15.4151 0 9.93057C0 4.44607 4.23959 0 9.46939 0C14.6992 0 18.9388 4.44607 18.9388 9.93057Z" transform="translate(66.6104 306.495) rotate(20.1236)" fill="#BDD8E4"/>
<path d="M32 16.1096C32 25.0067 21.551 34.1918 16 48C10.449 33.5342 0 25.0067 0 16.1096C0 7.21251 7.16344 0 16 0C24.8366 0 32 7.21251 32 16.1096Z" transform="translate(158.782 298.692) scale(-1 1) rotate(20.1236)" fill="white" stroke="#007699" stroke-width="2" stroke-linecap="round" stroke-linejoin="round"/>
<path d="M18.9388 9.93057C18.9388 15.4151 12.7547 21.0771 9.46939 29.589C6.18409 20.6718 0 15.4151 0 9.93057C0 4.44607 4.23959 0 9.46939 0C14.6992 0 18.9388 4.44607 18.9388 9.93057Z" transform="translate(154.686 306.495) scale(-1 1) rotate(20.1236)" fill="#BDD8E4"/>
<path d="M1 5C1 2.79086 2.79086 1 5 1H58C60.2091 1 62 2.79086 62 5V18H1V5Z" transform="translate(141.735 274.468) scale(-1 1)" fill="#F1F4F5" stroke="#007699" stroke-width="2"/>
<path d="M1 5C1 2.79086 2.79086 1 5 1H13C15.2091 1 17 2.79086 17 5V18H1V5Z" transform="translate(93.1602 286.586) scale(-1 1) rotate(-17.362)" fill="#F1F4F5" stroke="#007699" stroke-width="2"/>
<path d="M1 5C1 2.79086 2.79086 1 5 1H13C15.2091 1 17 2.79086 17 5V18H1V5Z" transform="translate(144.491 281.215) scale(-1 1) rotate(17.36)" fill="#F1F4F5" stroke="#007699" stroke-width="2"/>
<path d="M1 5C1 2.79086 2.79086 1 5 1H26C28.2091 1 30 2.79086 30 5V18H1V5Z" transform="translate(125.735 283.468) scale(-1 1)" fill="#F1F4F5" stroke="#007699" stroke-width="2"/>
<rect x="1" y="1" width="34" height="7" rx="3.5" transform="translate(266.184 205.374) rotate(49.897)" fill="white" stroke="#007699" stroke-width="2"/>
<rect x="1" y="1" width="34" height="7" rx="3.5" transform="translate(249.403 228.384) rotate(9.89699)" fill="white" stroke="#007699" stroke-width="2"/>
<rect x="1" y="1" width="7" height="40" rx="3.5" transform="translate(265.404 201.464) rotate(29.897)" fill="white" stroke="#007699" stroke-width="2"/>
<path d="M0 -1C-0.552285 -1 -1 -0.552285 -1 0C-1 0.552285 -0.552285 1 0 1V-1ZM34.9027 1C35.455 1 35.9027 0.552285 35.9027 0C35.9027 -0.552285 35.455 -1 34.9027 -1V1ZM0 1H34.9027V-1H0V1Z" transform="translate(260.322 223.343) rotate(29.3821)" fill="#007699"/>
<circle cx="8.5" cy="8.5" r="7.5" transform="translate(257.19 211.738) rotate(29.897)" fill="white" stroke="#007699" stroke-width="2"/>
<ellipse cx="7.32789" cy="7.19231" rx="7.32789" ry="7.19231" transform="translate(285.735 234.775)" fill="white"/>
<path d="M0 3.92308V0M0 13.0769V17" transform="translate(293.235 233.468)" stroke="#007699" stroke-width="2" stroke-linecap="round" stroke-linejoin="round"/>
<path d="M0 3.97867V0M0 13.2622V17.2409" transform="matrix(0.507019 0.861935 -0.870022 0.493014 300.735 237.718)" stroke="#007699" stroke-width="2" stroke-linecap="round" stroke-linejoin="round"/>
<path d="M0 3.97867V0M0 13.2622V17.2409" transform="matrix(0.507019 -0.861935 0.870022 0.493014 285.735 237.718)" stroke="#007699" stroke-width="2" stroke-linecap="round" stroke-linejoin="round"/>
<path d="M0 3.5H3.49941M7 3.5H3.49941M3.49941 3.5L3.5 0M3.49941 3.5V7" transform="translate(116.5 68)" stroke="#007699" stroke-width="2" stroke-linecap="round" stroke-linejoin="round"/>
<path d="M87.7459 9.25816C94.4299 9.25816 100.066 13.6901 101.805 19.7408C102.415 21.8639 104.15 23.69 106.359 23.69H107.606M90.2274 19.0609C90.2274 8.53386 81.5864 0 70.9273 0C63.4247 0 56.9915 4.02563 53.815 10.1516C53.0238 11.6774 51.5125 12.7309 49.8438 13.1426C46.1925 14.0435 43.2196 16.636 41.8282 20.0282C41.0244 21.9878 39.3413 23.69 37.2233 23.69H0" transform="translate(140.965 89.7048) scale(-1 1)" stroke="#007699" stroke-width="2" stroke-linecap="round" stroke-linejoin="round"/>
<path d="M0 3.5H3.49941M7 3.5H3.49941M3.49941 3.5L3.5 0M3.49941 3.5V7" transform="translate(9 136.5)" stroke="#007699" stroke-width="2" stroke-linecap="round" stroke-linejoin="round"/>
<path d="M12.4 4.0625C12 2.4375 10.2641 -1.26682e-10 6.4642 0C2.66428 1.26682e-10 0.0978537 2.92417 0.00203251 6.52841C-0.101384 10.4184 3.7591 13.2965 7.59977 13H9.19997M12.802 7.74715C12.802 10.7263 12.802 17.225 12.802 19.5C12.802 23.5625 15.6 26 19.6021 26C23.6041 26 26 22.75 26 19.5C26 16.25 23.4438 13 19.6021 13C18 13 16.4 13 16.4 13" transform="translate(287 295)" stroke="#007699" stroke-width="2" stroke-linecap="round" stroke-linejoin="bevel"/>
</svg>
